<?xml version="1.0" encoding="UTF-8" standalone="no"?><svg width="1000" height="1000" viewBox="0 0 264.58333 264.58333"><path style="fill:#3eb489;stroke-width:0.264583;fill-opacity:1" d="m 148.56379,232.10574 c 0.10403,-0.25467 0.4276,-1.1543 0.71905,-1.99919 0.29145,-0.84488 0.45575,-1.61032 0.36511,-1.70097 -0.0907,-0.0906 -1.0861,-0.31579 -2.21211,-0.50034 -1.12601,-0.18454 -3.55948,-0.34184 -5.40771,-0.34955 -1.84823,-0.008 -3.99135,0.11779 -4.7625,0.27888 -0.77115,0.1611 -2.01189,0.63735 -2.75721,1.05833 -0.74532,0.42099 -1.60852,0.76544 -1.91823,0.76544 -0.30971,0 -0.5631,-0.16586 -0.5631,-0.36857 0,-0.20271 0.16369,-0.43138 0.36376,-0.50815 0.20007,-0.0768 0.41665,-0.49999 0.4813,-0.94047 0.0647,-0.44049 0.0127,-0.98823 -0.11544,-1.21721 -0.12814,-0.22897 -0.31496,-0.36706 -0.41516,-0.30686 -0.10019,0.0602 -0.71795,0.18347 -1.3728,0.27394 -0.65484,0.0905 -2.02406,0.39037 -3.04271,0.66645 -1.01864,0.27608 -2.2688,0.64551 -2.77812,0.82094 -0.50932,0.17543 -1.64042,0.65004 -2.51354,1.05468 -0.87313,0.40464 -1.84464,0.81203 -2.15892,0.90531 -0.31428,0.0933 -0.71581,0.34358 -0.89229,0.55623 -0.17648,0.21264 -0.54442,0.38663 -0.81765,0.38663 -0.27322,0 -0.49677,-0.12689 -0.49677,-0.28198 0,-0.15509 0.10877,-0.48522 0.24171,-0.73361 0.13294,-0.2484 0.28177,-1.10378 0.33073,-1.90084 0.089,-1.4492 0.089,-1.4492 -2.6891,-1.61468 -1.52797,-0.091 -6.05235,-0.25483 -10.05417,-0.36405 -4.00182,-0.10922 -7.333338,-0.2508 -7.403365,-0.31463 -0.07003,-0.0638 0.0788,-0.47519 0.330729,-0.91415 0.251928,-0.43896 0.458052,-1.04315 0.458052,-1.34264 0,-0.53808 -0.06656,-0.54244 -5.622396,-0.36863 -3.092318,0.0967 -5.995715,0.24305 -6.451992,0.32514 -0.489217,0.088 -0.90565,0.0262 -1.014965,-0.15068 -0.101955,-0.16496 -0.06792,-0.44355 0.07564,-0.61907 0.143555,-0.17553 0.570325,-1.08333 0.948381,-2.01733 0.378057,-0.93399 0.657807,-1.72462 0.621667,-1.75693 -0.03614,-0.0323 -0.770014,-0.13944 -1.630833,-0.23805 -0.860817,-0.0986 -2.051442,-0.33479 -2.645834,-0.52485 -0.594389,-0.19005 -1.973675,-0.61749 -3.065081,-0.94986 -1.091407,-0.33237 -2.103438,-0.69336 -2.248959,-0.8022 -0.145521,-0.10884 -1.01047,-0.34398 -1.92211,-0.52253 -0.978874,-0.19172 -2.737737,-0.27263 -4.295818,-0.1976 -1.451059,0.0699 -2.70056,0.0648 -2.776664,-0.0113 -0.0761,-0.0761 0.08734,-0.38533 0.363214,-0.68717 0.306147,-0.33496 0.559883,-1.11581 0.651201,-2.00401 0.08228,-0.80036 0.220945,-1.69333 0.308134,-1.98437 0.133516,-0.4457 -0.16705,-0.70027 -1.905553,-1.61397 -1.135238,-0.59664 -2.763655,-1.54914 -3.618702,-2.11667 -0.855048,-0.56752 -1.748017,-1.15336 -1.984375,-1.30185 -0.23636,-0.14849 -0.965525,-0.61566 -1.620369,-1.03814 -0.654844,-0.42248 -1.905,-1.14601 -2.778125,-1.60785 -0.873125,-0.46183 -2.182812,-1.04518 -2.910417,-1.29632 -0.727604,-0.25114 -2.215885,-0.8944 -3.307291,-1.42945 -1.109814,-0.54409 -2.020036,-1.16629 -2.065288,-1.41179 -0.0445,-0.24143 0.153131,-0.65815 0.439182,-0.92604 0.286052,-0.2679 1.126136,-1.24641 1.86685,-2.17446 0.740717,-0.92805 1.346756,-1.78315 1.346756,-1.90021 0,-0.11706 -0.327422,-0.4336 -0.727604,-0.70341 -0.400183,-0.26982 -1.037257,-0.64573 -1.415725,-0.83535 -0.378465,-0.18962 -1.271434,-0.80223 -1.984375,-1.36134 -0.712938,-0.55911 -2.189224,-1.63788 -3.28063,-2.39726 -1.091406,-0.75938 -2.929654,-1.97313 -4.084997,-2.69723 -1.155343,-0.7241 -2.627747,-1.61084 -3.27201,-1.97052 -0.644263,-0.35969 -1.654466,-0.79385 -2.244892,-0.96479 -0.590428,-0.17095 -1.107609,-0.42726 -1.149294,-0.56958 -0.04169,-0.14233 0.425516,-0.57306 1.038222,-0.95719 0.612707,-0.38413 2.093976,-1.21757 3.291711,-1.85209 1.197734,-0.63451 2.18,-1.23003 2.182812,-1.32337 0.0028,-0.0933 -0.44137,-0.34514 -0.987073,-0.55956 -0.545703,-0.21442 -1.647031,-0.54098 -2.447396,-0.72569 -0.800364,-0.18471 -1.812396,-0.51638 -2.248958,-0.73705 -0.436563,-0.22066 -1.277662,-0.77023 -1.869112,-1.22126 -0.59145,-0.45104 -2.074704,-1.71303 -3.296121,-2.80444 -1.221417,-1.0914 -2.730532,-2.52015 -3.353586,-3.175 -0.623057,-0.65484 -1.134099,-1.30594 -1.13565,-1.44688 -0.0016,-0.14095 0.608296,-0.87507 1.35522,-1.63139 1.358045,-1.37513 1.358045,-1.37513 -0.03245,-2.07974 -0.76477,-0.38754 -2.00097,-1.13077 -2.747107,-1.65161 -0.746138,-0.52085 -1.713803,-1.29559 -2.150365,-1.72164 -0.436563,-0.42607 -1.121172,-0.94607 -1.521354,-1.15558 -0.400183,-0.2095 -0.727604,-0.52166 -0.727604,-0.69369 0,-0.17203 0.403778,-0.73452 0.897284,-1.24998 0.493506,-0.51546 0.96947,-1.17891 1.057697,-1.47433 0.112499,-0.37669 -0.153269,-0.95461 -0.889766,-1.93479 -0.577599,-0.76871 -1.888074,-2.92635 -2.912167,-4.79475 -1.58055,-2.88364 -2.141566,-3.64803 -3.711685,-5.05719 -1.017333,-0.91305 -1.849697,-1.85014 -1.849697,-2.08243 0,-0.23228 0.426214,-0.65187 0.947141,-0.9324 0.520928,-0.28054 1.205537,-0.81681 1.521354,-1.1917 0.315818,-0.3749 1.437997,-1.47405 2.493733,-2.44257 1.055736,-0.96852 2.63138,-2.30232 3.501431,-2.964 0.870051,-0.66168 2.369921,-1.68178 3.333043,-2.2669 0.963123,-0.58512 1.858026,-1.06385 1.988672,-1.06385 0.130649,0 0.237543,-0.30184 0.237543,-0.67077 0,-0.36892 -0.166195,-0.93447 -0.369324,-1.25677 -0.203131,-0.3223 -0.449278,-0.85389 -0.546997,-1.18131 -0.140046,-0.46925 -0.07235,-0.59532 0.319691,-0.59532 0.27355,0 1.561497,-0.361 2.862101,-0.80223 1.300607,-0.44123 3.317238,-1.0592 4.481404,-1.37328 1.164167,-0.31407 2.935116,-0.63768 3.935439,-0.71912 1.818775,-0.14808 1.818775,-0.14808 0.727604,-1.46614 -0.600141,-0.72494 -1.091168,-1.46908 -1.091168,-1.65365 0,-0.18457 0.0893,-0.34224 0.198438,-0.35039 0.10914,-0.008 1.27,-0.0607 2.579687,-0.11675 1.309688,-0.0561 3.214688,-0.171 4.233334,-0.25541 1.018646,-0.0844 2.566458,-0.21674 3.439583,-0.29405 0.873125,-0.0773 1.910244,-0.20226 2.304706,-0.27768 0.701691,-0.13414 0.718863,-0.18357 0.79375,-2.28449 0.07654,-2.14737 0.07654,-2.14737 1.670183,-2.08166 0.876501,0.0362 1.921407,-0.0589 2.322015,-0.21121 0.400605,-0.15231 0.993156,-0.32797 1.316778,-0.39036 0.32362,-0.0624 1.183714,-0.25151 1.911318,-0.42029 0.727605,-0.16877 2.573073,-0.46462 4.101042,-0.65744 1.527969,-0.19281 3.611563,-0.31687 4.630209,-0.27567 1.018646,0.0412 1.930614,0.0288 2.026594,-0.0276 0.09598,-0.0564 -0.104177,-0.8463 -0.444796,-1.75535 -0.340619,-0.90905 -0.790617,-2.22091 -0.999998,-2.91524 -0.209381,-0.69433 -0.306877,-1.29759 -0.216662,-1.34057 0.09022,-0.043 2.069028,0.004 4.397362,0.10522 2.328333,0.10085 7.036372,0.13584 10.462305,0.0777 4.669549,-0.0792 6.722938,-0.0111 8.202084,0.27205 1.085212,0.20771 2.713495,0.62716 3.61841,0.93209 0.904914,0.30493 1.696934,0.55442 1.760045,0.55442 0.06311,0 -0.0522,-0.5547 -0.256238,-1.23268 -0.204039,-0.67797 -0.370981,-1.64435 -0.370981,-2.14751 0,-0.8135 0.06594,-0.89944 0.595313,-0.77586 0.327422,0.0764 1.642814,0.43041 2.923093,0.7866 2.327782,0.64762 2.327782,0.64762 2.153222,-0.14713 -0.17211,-0.78365 -0.16214,-0.79223 0.71493,-0.61512 0.48922,0.0988 2.15888,0.25298 3.71036,0.34265 2.82088,0.16306 2.82088,0.16306 2.31765,-1.71324 -0.27677,-1.03196 -0.67661,-2.92478 -0.88853,-4.20627 -0.21191,-1.281492 -0.46369,-2.925295 -0.55951,-3.652899 -0.0958,-0.727604 -0.16205,-5.360766 -0.14719,-10.295917 0.0149,-4.935149 0.0669,-9.01291 0.1157,-9.061691 0.0488,-0.04878 1.15046,0.09035 2.44818,0.309174 1.29772,0.218826 3.38179,0.575884 4.63127,0.793461 1.24948,0.21758 2.51196,0.395597 2.80552,0.395597 0.51826,0 0.52214,-0.04025 0.13376,-1.389062 -0.27622,-0.9593 -0.40748,-2.698811 -0.42426,-5.622396 -0.0209,-3.637976 0.0315,-4.219589 0.37258,-4.135594 0.21828,0.05375 0.57547,0.113287 0.79375,0.132292 0.30542,0.02659 0.47779,-0.544611 0.74806,-2.47899 0.19315,-1.382448 0.65942,-3.287448 1.03614,-4.233333 0.37671,-0.945886 1.02235,-2.268742 1.43474,-2.93968 0.41239,-0.670938 0.74981,-1.345626 0.74981,-1.499307 0,-0.153678 0.0893,-0.319103 0.19843,-0.367612 0.10914,-0.04851 0.65372,-0.764513 1.21016,-1.591127 0.55645,-0.826614 1.30566,-1.838645 1.66491,-2.248959 0.35925,-0.410313 1.1282,-1.698524 1.70878,-2.862691 1.05559,-2.116666 1.05559,-2.116666 1.32636,-6.879167 0.14892,-2.619375 0.36205,-5.36757 0.47362,-6.107099 0.14285,-0.946864 0.0915,-1.651241 -0.17345,-2.38125 -0.20697,-0.570159 -0.49125,-1.45337 -0.63174,-1.962693 -0.1405,-0.509322 -0.31903,-1.432057 -0.39675,-2.05052 -0.0777,-0.618464 -0.0524,-1.12448 0.0563,-1.12448 0.10866,0 0.88271,0.69155 1.72011,1.53678 0.8374,0.845227 2.24439,1.921518 3.12665,2.391759 0.88226,0.470239 2.44227,1.624158 3.46669,2.564262 1.02441,0.940107 1.89352,1.709283 1.93135,1.709283 0.0378,0 0.72195,0.240652 1.52026,0.534778 0.79831,0.29413 2.20735,0.711857 3.1312,0.928283 0.92384,0.216427 2.88837,0.631008 4.36562,0.921293 1.47725,0.290285 3.6384,0.719587 4.80257,0.954 1.16417,0.234415 2.89057,0.664347 3.83646,0.955405 0.94588,0.291057 2.69348,1.052933 3.88354,1.693058 1.5074,0.810818 2.59801,1.643743 3.59537,2.745865 0.7874,0.8701 1.71192,2.126967 2.05449,2.793034 0.62286,1.211032 0.62286,1.211032 0.92422,0.200472 0.16574,-0.55581 0.49023,-1.36775 0.72108,-1.804313 0.23084,-0.436562 0.84617,-1.255199 1.36738,-1.819193 0.53315,-0.576905 0.94767,-1.300226 0.94767,-1.653646 0,-0.345511 0.11696,-0.628203 0.25992,-0.628203 0.14296,0 1.03803,0.47625 1.98904,1.058334 0.95101,0.582083 1.78222,1.058333 1.84714,1.058333 0.0649,0 1.4618,0.908862 3.10419,2.019694 1.64239,1.110832 3.37444,2.331223 3.84901,2.71198 0.47456,0.380756 1.94398,1.701718 3.26537,2.935472 1.32139,1.233753 2.7006,2.751799 3.0649,3.373438 0.36431,0.621636 0.76786,1.13025 0.89678,1.13025 0.12892,0 0.31402,-0.327422 0.41135,-0.727604 0.0973,-0.400183 0.6949,-1.946903 1.32795,-3.437155 0.63306,-1.490252 1.15101,-2.829706 1.15101,-2.976563 0,-0.146857 0.11488,-0.267012 0.25528,-0.267012 0.1404,0 0.39571,0.267891 0.56735,0.595313 0.17164,0.327422 0.68185,1.014791 1.13379,1.527487 0.45194,0.512694 1.29796,1.512581 1.88004,2.221971 0.58209,0.70939 1.17809,1.421006 1.32446,1.581367 0.14637,0.160364 1.62381,1.958446 3.2832,3.995738 1.65939,2.037291 3.14753,3.823229 3.30697,3.96875 0.15944,0.14552 1.47997,1.690065 2.93451,3.43232 1.45454,1.742255 2.86786,3.431323 3.14072,3.753485 0.4961,0.585751 0.4961,0.585751 2.28506,-1.712526 0.98393,-1.264055 2.01084,-2.542902 2.28202,-2.841887 0.27119,-0.298984 0.62063,-0.768149 0.77655,-1.042585 0.15592,-0.274439 0.42381,-0.545754 0.59531,-0.60292 0.17151,-0.05717 0.31183,0.07113 0.31183,0.285113 0,0.213982 0.5264,1.384763 1.16977,2.601735 0.64337,1.216975 1.54581,3.522369 2.00542,5.123098 0.4596,1.600729 1.11428,3.39157 1.45483,3.979643 0.34056,0.588074 1.52151,2.877572 2.62435,5.087771 1.10283,2.2102 2.14911,4.556784 2.32506,5.214628 0.17595,0.657847 0.4742,1.196084 0.66278,1.196084 0.18858,0 0.93779,-0.573424 1.66492,-1.274276 0.9269,-0.893416 1.32204,-1.481847 1.32204,-1.968759 0,-0.381969 0.1086,-0.761609 0.24135,-0.843651 0.13275,-0.08204 0.58769,0.297887 1.011,0.84428 0.4233,0.546397 1.02906,1.557698 1.34614,2.247334 0.31708,0.689639 0.57651,1.335141 0.57651,1.434449 0,0.09931 0.2895,0.90428 0.64333,1.788822 0.35384,0.884542 1.06491,3.238968 1.58015,5.232059 0.51525,1.99309 1.05846,4.385236 1.20713,5.315876 0.14867,0.93065 0.2808,3.02064 0.29363,4.64443 0.0128,1.6238 0.086,2.95235 0.16255,2.95235 0.0766,0 0.91005,-0.61337 1.85219,-1.36305 0.94213,-0.74968 1.82295,-1.65232 1.95737,-2.00588 0.13442,-0.35356 0.3925,-0.59429 0.5735,-0.53497 0.18101,0.0593 0.63613,1.34892 1.01138,2.86578 0.37525,1.51685 0.87382,3.53182 1.10793,4.47771 0.23411,0.94588 0.72933,2.79135 1.1005,4.10104 0.37117,1.30969 1.02497,3.27422 1.4529,4.36562 0.42792,1.09141 0.89915,2.46063 1.04718,3.04271 0.14803,0.58208 0.46196,2.36802 0.69761,3.96875 0.27271,1.85242 0.36587,3.53324 0.25628,4.62371 -0.0947,0.94231 -0.28527,1.92458 -0.42347,2.18281 -0.1382,0.25824 -0.15779,0.46436 -0.0435,0.45805 0.11426,-0.006 0.6435,-0.27421 1.1761,-0.59531 0.5326,-0.32112 1.38584,-0.84184 1.89611,-1.15718 0.51026,-0.31533 0.99087,-0.51021 1.06803,-0.43305 0.0771,0.0772 -0.0193,0.57328 -0.21428,1.1025 -0.19501,0.52922 -0.53917,1.61707 -0.76481,2.41743 -0.22564,0.80036 -0.56396,2.16958 -0.75182,3.04271 -0.19745,0.9177 -0.33651,3.26199 -0.32958,5.55625 0.007,2.18281 0.16015,4.86172 0.34124,5.95312 0.18109,1.09141 0.39103,2.30861 0.46653,2.70489 0.12548,0.65859 0.225,0.71207 1.15789,0.62221 0.56134,-0.0541 1.14789,-0.17696 1.30345,-0.27311 0.16786,-0.10374 0.28284,0.0609 0.28284,0.4049 0,0.31883 -0.22359,0.95094 -0.49686,1.40468 -0.27327,0.45373 -0.64286,1.45224 -0.82131,2.21891 -0.17844,0.76666 -0.35902,2.79072 -0.40127,4.49791 -0.0422,1.7072 -0.27104,3.93743 -0.50842,4.95607 -0.23738,1.01865 -0.78066,2.85925 -1.20729,4.09024 -0.42663,1.23099 -0.71924,2.29461 -0.65024,2.36361 0.069,0.069 0.26635,-0.0154 0.43855,-0.18763 0.1722,-0.1722 0.40834,-0.31309 0.52476,-0.31309 0.11641,0 0.21166,0.32033 0.21166,0.71185 0,0.39151 -0.31555,1.73097 -0.70122,2.97656 -0.38567,1.24559 -0.99512,3.09815 -1.35432,4.1168 -0.3592,1.01864 -1.03902,2.56645 -1.51071,3.43958 -0.47169,0.87312 -1.11095,2.03502 -1.42058,2.58198 -0.30962,0.54696 -0.70355,1.55899 -0.8754,2.24896 -0.17184,0.68996 -0.65507,2.02204 -1.07385,2.96017 -0.41878,0.93814 -1.22566,2.38583 -1.79309,3.21711 -0.56742,0.83127 -1.61391,2.05602 -2.32553,2.72165 -0.71163,0.66565 -1.73541,1.5099 -2.27508,1.87613 -0.53967,0.36623 -1.04645,0.66588 -1.12617,0.66588 -0.0797,0 -0.44498,0.23599 -0.81167,0.52443 -0.66671,0.52444 -0.66671,0.52444 0.0906,0.82077 0.61192,0.23946 0.68109,0.34321 0.3604,0.54054 -0.21829,0.13431 -1.11125,0.67542 -1.98438,1.20247 -0.87312,0.52704 -2.12328,1.2525 -2.77812,1.61213 -0.65485,0.35963 -2.0836,1.01054 -3.175,1.44645 -1.09141,0.43591 -2.10344,0.88525 -2.24896,0.99852 -0.14552,0.11328 -1.16515,0.45692 -2.26584,0.76365 -1.10069,0.30674 -2.7002,0.5577 -3.55448,0.5577 -1.01416,0 -1.92659,0.1828 -2.62896,0.5267 -0.59165,0.28968 -1.49244,0.91817 -2.00176,1.39665 -0.50933,0.47847 -1.64042,1.41249 -2.51355,2.07558 -0.87312,0.66309 -2.48047,1.86152 -3.57187,2.66318 -1.09141,0.80165 -2.30245,1.62492 -2.6912,1.82949 -0.38875,0.20457 -1.9961,1.25186 -3.57188,2.32732 -1.57577,1.07546 -4.20645,2.95652 -5.84594,4.18013 -1.63949,1.22361 -3.09801,2.15236 -3.24115,2.0639 -0.14314,-0.0885 -0.26025,-0.87003 -0.26025,-1.73683 0,-1.57598 0,-1.57598 -1.68224,-0.51355 -0.92523,0.58434 -1.75568,1.06243 -1.84545,1.06243 -0.0898,0 -0.91034,0.34163 -1.8235,0.75917 -0.91314,0.41754 -2.25558,1.00114 -2.98318,1.29688 -0.72761,0.29574 -2.69214,1.073 -4.36563,1.72724 -1.67349,0.65424 -3.31233,1.26984 -3.64186,1.368 -0.33753,0.10054 -0.52186,0.30354 -0.42214,0.46489 0.11116,0.17986 0.0521,0.20923 -0.15869,0.0789 -0.22129,-0.13676 -0.28398,-0.53392 -0.18394,-1.16536 0.0835,-0.52683 0.22328,-1.34484 0.3107,-1.81778 0.12704,-0.68724 0.0712,-0.85989 -0.27809,-0.85989 -0.24038,0 -3.78963,0.77847 -7.88724,1.72995 -4.09761,0.95147 -8.87895,2.07333 -10.6252,2.49302 -1.74625,0.41968 -3.80594,0.89136 -4.57708,1.04817 -0.77115,0.15681 -1.4685,0.28511 -1.54967,0.28511 -0.0812,0 -0.0625,-0.20836 0.0416,-0.46302 z"/></svg>
